<?xml version="1.0" standalone="no"?>
<svg xmlns:xlink="http://www.w3.org/1999/xlink" xmlns="http://www.w3.org/2000/svg" class="neod3viz" viewBox="-395 -242 791 484"><g transform="translate(0,0)"><rect x="-395" style="fill: none; pointer-events: all;" y="-242" width="100%" height="100%" transform="scale(1)"/><g transform="translate(12.948602676391602, -23.325407028198242) scale(0.8102906346321106,0.8102906346321106)"><g class="layer relationships"><g class="relationship" transform="translate(-7.345556177392571 283.51178883812116) rotate(348.0743935849605)"><path class="b-outline" fill="#A5ABB6" stroke="none" d="M 25 0.5 L 55.95078760931527 0.5 L 55.95078760931527 -0.5 L 25 -0.5 Z M 81.52110010931527 0.5 L 112.47188771863054 0.5 L 112.47188771863054 3.5 L 119.47188771863054 0 L 112.47188771863054 -3.5 L 112.47188771863054 -0.5 L 81.52110010931527 -0.5 Z"/><text text-anchor="middle" pointer-events="none" font-size="8px" fill="#000000" x="68.73594385931527" y="3">beats</text><path class="overlay" d="M 25 8 L 119.47188771863054 8 L 119.47188771863054 -8 L 25 -8 Z"/></g><g class="relationship" transform="translate(134.00815598090418 253.65790466781638) rotate(306.01758037222686)"><path class="b-outline" fill="#A5ABB6" stroke="none" d="M 25 0.5 L 57.550479416445484 0.5 L 57.550479416445484 -0.5 L 25 -0.5 Z M 83.12079191644548 0.5 L 115.67127133289097 0.5 L 115.67127133289097 3.5 L 122.67127133289097 0 L 115.67127133289097 -3.5 L 115.67127133289097 -0.5 L 83.12079191644548 -0.5 Z"/><text text-anchor="middle" pointer-events="none" font-size="8px" fill="#000000" x="70.33563566644548" y="3">beats</text><path class="overlay" d="M 25 8 L 122.67127133289097 8 L 122.67127133289097 -8 L 25 -8 Z"/></g><g class="relationship" transform="translate(74.78602511154833 -160.45092101549594) rotate(332.80201416540456)"><path class="b-outline" fill="#A5ABB6" stroke="none" d="M 25 0.5 L 55.35422849599388 0.5 L 55.35422849599388 -0.5 L 25 -0.5 Z M 80.92454099599388 0.5 L 111.27876949198776 0.5 L 111.27876949198776 3.5 L 118.27876949198776 0 L 111.27876949198776 -3.5 L 111.27876949198776 -0.5 L 80.92454099599388 -0.5 Z"/><text text-anchor="middle" pointer-events="none" font-size="8px" fill="#000000" x="68.13938474599388" y="3">beats</text><path class="overlay" d="M 25 8 L 118.27876949198776 8 L 118.27876949198776 -8 L 25 -8 Z"/></g><g class="relationship" transform="translate(8.655538124392312 -63.89131794128156) rotate(249.62641145592863)"><path class="b-outline" fill="#A5ABB6" stroke="none" d="M 24.018736134675446,-6.953439040707552 L 24.277555179777966,-5.987513214418485 A 222.8155844045951 222.8155844045951 0 0 1 66.86885853124897,-13.069044494435758 L 66.80118995466185,-14.066752349342522 A 223.8155844045951 223.8155844045951 0 0 0 24.018736134675446,-6.953439040707552 Z M 92.41335264222658,-14.33489095560381 L 92.36658699496061,-13.335985067025803 A 222.8155844045951 222.8155844045951 0 0 1 135.0968145677018,-7.147701134574504 L 134.38119573780182,-4.234302828421951 L 142.01401375370776,-5.963490249166615 L 136.05097300756847,-11.032232209444574 L 135.33535417766848,-8.118833903292021 A 223.8155844045951 223.8155844045951 0 0 0 92.41335264222658,-14.33489095560381"/><text text-anchor="middle" pointer-events="none" font-size="8px" fill="#000000" x="79.60866672256914" y="-11.067533014167509" transform="rotate(180 79.60866672256914 -14.067533014167509)">beats</text><path class="overlay" d="M 22.07759329640654,-14.197882737875565 L 26.218698018046872,1.256930482749528 A 215.3155844045951 215.3155844045951 0 0 1 133.30776749295183,0.13579463080687937 L 140.10569687397447,1.8055719005735273 L 143.9223306334411,-13.732552398906758 L 137.12440125241847,-15.402329668673405 A 231.3155844045951 231.3155844045951 0 0 0 22.07759329640654,-14.197882737875565"/></g><g class="relationship" transform="translate(74.78602511154833 -160.45092101549594) rotate(525.4764568398234)"><path class="b-outline" fill="#A5ABB6" stroke="none" d="M 25 0.5 L 66.18737572739471 0.5 L 66.18737572739471 -0.5 L 25 -0.5 Z M 91.75768822739471 0.5 L 132.94506395478942 0.5 L 132.94506395478942 3.5 L 139.94506395478942 0 L 132.94506395478942 -3.5 L 132.94506395478942 -0.5 L 91.75768822739471 -0.5 Z"/><text text-anchor="middle" pointer-events="none" font-size="8px" fill="#000000" x="78.97253197739471" y="3" transform="rotate(180 78.97253197739471 0)">beats</text><path class="overlay" d="M 25 8 L 139.94506395478942 8 L 139.94506395478942 -8 L 25 -8 Z"/></g><g class="relationship" transform="translate(-84.88816589673759 -119.08636071444835) rotate(515.3950321018276)"><path class="b-outline" fill="#A5ABB6" stroke="none" d="M 25 0.5 L 59.71652803875007 0.5 L 59.71652803875007 -0.5 L 25 -0.5 Z M 85.28684053875007 0.5 L 120.00336857750014 0.5 L 120.00336857750014 3.5 L 127.00336857750014 0 L 120.00336857750014 -3.5 L 120.00336857750014 -0.5 L 85.28684053875007 -0.5 Z"/><text text-anchor="middle" pointer-events="none" font-size="8px" fill="#000000" x="72.50168428875007" y="3" transform="rotate(180 72.50168428875007 0)">beats</text><path class="overlay" d="M 25 8 L 127.00336857750014 8 L 127.00336857750014 -8 L 25 -8 Z"/></g><g class="relationship" transform="translate(-223.08963035726404 -55.79829485781778) rotate(461.94543411410706)"><path class="b-outline" fill="#A5ABB6" stroke="none" d="M 25 0.5 L 55.496274965446446 0.5 L 55.496274965446446 -0.5 L 25 -0.5 Z M 81.06658746544645 0.5 L 111.56286243089289 0.5 L 111.56286243089289 3.5 L 118.56286243089289 0 L 111.56286243089289 -3.5 L 111.56286243089289 -0.5 L 81.06658746544645 -0.5 Z"/><text text-anchor="middle" pointer-events="none" font-size="8px" fill="#000000" x="68.28143121544645" y="3" transform="rotate(180 68.28143121544645 0)">beats</text><path class="overlay" d="M 25 8 L 118.56286243089289 8 L 118.56286243089289 -8 L 25 -8 Z"/></g><g class="relationship" transform="translate(220.8438045544872 134.2159752046773) rotate(208.10129219269095)"><path class="b-outline" fill="#A5ABB6" stroke="none" d="M 25 0.5 L 57.96211335931088 0.5 L 57.96211335931088 -0.5 L 25 -0.5 Z M 83.53242585931088 0.5 L 116.49453921862175 0.5 L 116.49453921862175 3.5 L 123.49453921862175 0 L 116.49453921862175 -3.5 L 116.49453921862175 -0.5 L 83.53242585931088 -0.5 Z"/><text text-anchor="middle" pointer-events="none" font-size="8px" fill="#000000" x="70.74726960931088" y="3" transform="rotate(180 70.74726960931088 0)">beats</text><path class="overlay" d="M 25 8 L 123.49453921862175 8 L 123.49453921862175 -8 L 25 -8 Z"/></g><g class="relationship" transform="translate(89.85435950486978 64.27032871153195) rotate(237.6430559409971)"><path class="b-outline" fill="#A5ABB6" stroke="none" d="M 24.018736134675446,-6.953439040707552 L 24.277555179777966,-5.987513214418485 A 194.21683630944662 194.21683630944662 0 0 1 59.58690027682342,-12.028449916723503 L 59.509884960831116,-13.025479826556989 A 195.21683630944662 195.21683630944662 0 0 0 24.018736134675446,-6.953439040707552 Z M 85.1257672937882,-13.318318073543537 L 85.07156502211122,-12.319788097155737 A 194.21683630944662 194.21683630944662 0 0 1 120.5097830233725,-7.087630576726661 L 119.79977436602962,-4.172859967142065 L 127.42924922196038,-5.916738811190696 L 121.45646123316303,-10.973991389506121 L 120.74645257582014,-8.059220779921526 A 195.21683630944662 195.21683630944662 0 0 0 85.1257672937882,-13.318318073543537"/><text text-anchor="middle" pointer-events="none" font-size="8px" fill="#000000" x="72.31873301874097" y="-10.092569065951096" transform="rotate(180 72.31873301874097 -13.092569065951096)">beats</text><path class="overlay" d="M 22.07759329640654,-14.197882737875565 L 26.218698018046872,1.256930482749528 A 186.71683630944662 186.71683630944662 0 0 1 118.7347613800153,0.1992959472348277 L 125.53589280237937,1.8559828143682253 L 129.32260564154137,-13.68946043674962 L 122.52147421917735,-15.346147303883015 A 202.71683630944662 202.71683630944662 0 0 0 22.07759329640654,-14.197882737875565"/></g><g class="relationship" transform="translate(8.655538124392312 -63.89131794128156) rotate(417.6430559409971)"><path class="b-outline" fill="#A5ABB6" stroke="none" d="M 24.018736134675446,-6.953439040707552 L 24.277555179777966,-5.987513214418485 A 194.21683630944662 194.21683630944662 0 0 1 59.58690027682342,-12.028449916723503 L 59.509884960831116,-13.025479826556989 A 195.21683630944662 195.21683630944662 0 0 0 24.018736134675446,-6.953439040707552 Z M 85.1257672937882,-13.318318073543537 L 85.07156502211122,-12.319788097155737 A 194.21683630944662 194.21683630944662 0 0 1 120.5097830233725,-7.087630576726661 L 119.79977436602962,-4.172859967142065 L 127.42924922196038,-5.916738811190696 L 121.45646123316303,-10.973991389506121 L 120.74645257582014,-8.059220779921526 A 195.21683630944662 195.21683630944662 0 0 0 85.1257672937882,-13.318318073543537"/><text text-anchor="middle" pointer-events="none" font-size="8px" fill="#000000" x="72.31873301874097" y="-10.092569065951096">beats</text><path class="overlay" d="M 22.07759329640654,-14.197882737875565 L 26.218698018046872,1.256930482749528 A 186.71683630944662 186.71683630944662 0 0 1 118.7347613800153,0.1992959472348277 L 125.53589280237937,1.8559828143682253 L 129.32260564154137,-13.68946043674962 L 122.52147421917735,-15.346147303883015 A 202.71683630944662 202.71683630944662 0 0 0 22.07759329640654,-14.197882737875565"/></g><g class="relationship" transform="translate(8.655538124392312 -63.89131794128156) rotate(249.62641145592863)"><path class="b-outline" fill="#A5ABB6" stroke="none" d="M 24.018736134675446,6.953439040707552 L 24.277555179777966,5.987513214418485 A 222.8155844045951 222.8155844045951 0 0 0 66.86885853124903,13.069044494435758 L 66.80118995466192,14.066752349342522 A 223.8155844045951 223.8155844045951 0 0 1 24.018736134675446,6.953439040707552 Z M 92.41335264222673,14.33489095560381 L 92.36658699496076,13.335985067025803 A 222.8155844045951 222.8155844045951 0 0 0 135.0968145677018,7.147701134574504 L 134.38119573780182,4.234302828421951 L 142.01401375370776,5.963490249166615 L 136.05097300756847,11.032232209444574 L 135.33535417766848,8.118833903292021 A 223.8155844045951 223.8155844045951 0 0 1 92.41335264222673,14.33489095560381"/><text text-anchor="middle" pointer-events="none" font-size="8px" fill="#000000" x="79.60866672256924" y="17.06753301416751" transform="rotate(180 79.60866672256924 14.067533014167509)">beats</text><path class="overlay" d="M 22.07759329640654,14.197882737875565 L 26.218698018046872,-1.256930482749528 A 215.3155844045951 215.3155844045951 0 0 0 133.30776749295183,-0.13579463080687937 L 140.10569687397447,-1.8055719005735273 L 143.9223306334411,13.732552398906758 L 137.12440125241847,15.402329668673405 A 231.3155844045951 231.3155844045951 0 0 1 22.07759329640654,14.197882737875565"/></g><g class="relationship" transform="translate(-49.23746708703372 -219.780829944952) rotate(385.5653510613424)"><path class="b-outline" fill="#A5ABB6" stroke="none" d="M 25 0.5 L 52.45687003434314 0.5 L 52.45687003434314 -0.5 L 25 -0.5 Z M 78.02718253434314 0.5 L 105.48405256868628 0.5 L 105.48405256868628 3.5 L 112.48405256868628 0 L 105.48405256868628 -3.5 L 105.48405256868628 -0.5 L 78.02718253434314 -0.5 Z"/><text text-anchor="middle" pointer-events="none" font-size="8px" fill="#000000" x="65.24202628434314" y="3">beats</text><path class="overlay" d="M 25 8 L 112.48405256868628 8 L 112.48405256868628 -8 L 25 -8 Z"/></g></g><g class="layer nodes"><g class="node" aria-label="graph-node0" transform="translate(-7.345556177392571,283.51178883812116)"><circle class="ring" cx="0" cy="0" stroke-width="8px" r="29"/><circle class="b-outline" cx="0" cy="0" r="25" fill="#afb68b" stroke="#8c916f" stroke-width="2px"/><text class="caption" text-anchor="middle" pointer-events="none" x="0" y="0" font-size="10px" fill="#2A2C34"> "Khabib</text><text class="caption" text-anchor="middle" pointer-events="none" x="0" y="10" font-size="10px" fill="#2A2C34"> Nurm…</text></g><g class="node" aria-label="graph-node1" transform="translate(134.00815598090418,253.65790466781638)"><circle class="ring" cx="0" cy="0" stroke-width="8px" r="29"/><circle class="b-outline" cx="0" cy="0" r="25" fill="#afb68b" stroke="#8c916f" stroke-width="2px"/><text class="caption" text-anchor="middle" pointer-events="none" x="0" y="-5" font-size="10px" fill="#2A2C34"> "Rafael</text><text class="caption" text-anchor="middle" pointer-events="none" x="0" y="5" font-size="10px" fill="#2A2C34"> Dos</text><text class="caption" text-anchor="middle" pointer-events="none" x="0" y="15" font-size="10px" fill="#2A2C34"> Anj…</text></g><g class="node" aria-label="graph-node2" transform="translate(220.8438045544872,134.2159752046773)"><circle class="ring" cx="0" cy="0" stroke-width="8px" r="29"/><circle class="b-outline" cx="0" cy="0" r="25" fill="#afb68b" stroke="#8c916f" stroke-width="2px"/><text class="caption" text-anchor="middle" pointer-events="none" x="0" y="0" font-size="10px" fill="#2A2C34"> "Neil</text><text class="caption" text-anchor="middle" pointer-events="none" x="0" y="10" font-size="10px" fill="#2A2C34"> Magny"</text></g><g class="node" aria-label="graph-node3" transform="translate(74.78602511154833,-160.45092101549594)"><circle class="ring" cx="0" cy="0" stroke-width="8px" r="29"/><circle class="b-outline" cx="0" cy="0" r="25" fill="#afb68b" stroke="#8c916f" stroke-width="2px"/><text class="caption" text-anchor="middle" pointer-events="none" x="0" y="0" font-size="10px" fill="#2A2C34"> "Jon</text><text class="caption" text-anchor="middle" pointer-events="none" x="0" y="10" font-size="10px" fill="#2A2C34"> Jones"</text></g><g class="node" aria-label="graph-node4" transform="translate(202.22281087292234,-225.93886969269778)"><circle class="ring" cx="0" cy="0" stroke-width="8px" r="29"/><circle class="b-outline" cx="0" cy="0" r="25" fill="#afb68b" stroke="#8c916f" stroke-width="2px"/><text class="caption" text-anchor="middle" pointer-events="none" x="0" y="0" font-size="10px" fill="#2A2C34"> "Daniel</text><text class="caption" text-anchor="middle" pointer-events="none" x="0" y="10" font-size="10px" fill="#2A2C34"> Cormi…</text></g><g class="node" aria-label="graph-node5" transform="translate(8.655538124392312,-63.89131794128156)"><circle class="ring" cx="0" cy="0" stroke-width="8px" r="29"/><circle class="b-outline" cx="0" cy="0" r="25" fill="#afb68b" stroke="#8c916f" stroke-width="2px"/><text class="caption" text-anchor="middle" pointer-events="none" x="0" y="0" font-size="10px" fill="#2A2C34"> "Michael</text><text class="caption" text-anchor="middle" pointer-events="none" x="0" y="10" font-size="10px" fill="#2A2C34"> Bisping"</text></g><g class="node" aria-label="graph-node6" transform="translate(-49.23746708703372,-219.780829944952)"><circle class="ring" cx="0" cy="0" stroke-width="8px" r="29"/><circle class="b-outline" cx="0" cy="0" r="25" fill="#afb68b" stroke="#8c916f" stroke-width="2px"/><text class="caption" text-anchor="middle" pointer-events="none" x="0" y="0" font-size="10px" fill="#2A2C34"> "Matt</text><text class="caption" text-anchor="middle" pointer-events="none" x="0" y="10" font-size="10px" fill="#2A2C34"> Hamill"</text></g><g class="node" aria-label="graph-node7" transform="translate(-84.88816589673759,-119.08636071444835)"><circle class="ring" cx="0" cy="0" stroke-width="8px" r="29"/><circle class="b-outline" cx="0" cy="0" r="25" fill="#afb68b" stroke="#8c916f" stroke-width="2px"/><text class="caption" text-anchor="middle" pointer-events="none" x="0" y="0" font-size="10px" fill="#2A2C34"> "Brandon</text><text class="caption" text-anchor="middle" pointer-events="none" x="0" y="10" font-size="10px" fill="#2A2C34"> Vera"</text></g><g class="node" aria-label="graph-node8" transform="translate(-223.08963035726404,-55.79829485781778)"><circle class="ring" cx="0" cy="0" stroke-width="8px" r="29"/><circle class="b-outline" cx="0" cy="0" r="25" fill="#afb68b" stroke="#8c916f" stroke-width="2px"/><text class="caption" text-anchor="middle" pointer-events="none" x="0" y="0" font-size="10px" fill="#2A2C34"> "Frank</text><text class="caption" text-anchor="middle" pointer-events="none" x="0" y="10" font-size="10px" fill="#2A2C34"> Mir"</text></g><g class="node" aria-label="graph-node9" transform="translate(-252.80427930850703,84.65573714929789)"><circle class="ring" cx="0" cy="0" stroke-width="8px" r="29"/><circle class="b-outline" cx="0" cy="0" r="25" fill="#afb68b" stroke="#8c916f" stroke-width="2px"/><text class="caption" text-anchor="middle" pointer-events="none" x="0" y="0" font-size="10px" fill="#2A2C34"> "Brock</text><text class="caption" text-anchor="middle" pointer-events="none" x="0" y="10" font-size="10px" fill="#2A2C34"> Lesnar"</text></g><g class="node" aria-label="graph-node10" transform="translate(89.85435950486978,64.27032871153195)"><circle class="ring" cx="0" cy="0" stroke-width="8px" r="29"/><circle class="b-outline" cx="0" cy="0" r="25" fill="#afb68b" stroke="#8c916f" stroke-width="2px"/><text class="caption" text-anchor="middle" pointer-events="none" x="0" y="0" font-size="10px" fill="#2A2C34"> "Kelvin</text><text class="caption" text-anchor="middle" pointer-events="none" x="0" y="10" font-size="10px" fill="#2A2C34"> Gastel…</text></g></g></g></g></svg>